<?xml version="1.0" encoding="utf-8"?>
<!-- Generator: Adobe Illustrator 16.0.0, SVG Export Plug-In . SVG Version: 6.00 Build 0)  -->
<!DOCTYPE svg PUBLIC "-//W3C//DTD SVG 1.1//EN" "http://www.w3.org/Graphics/SVG/1.1/DTD/svg11.dtd">
<svg version="1.1" id="Layer_1" xmlns="http://www.w3.org/2000/svg" xmlns:xlink="http://www.w3.org/1999/xlink" x="0px" y="0px"
	 width="600px" height="600px" viewBox="0 0 600 600" enable-background="new 0 0 600 600" xml:space="preserve">
<path fill="#5ABA47" d="M192.907,28.849c-47.921-2.116-88.274,6.178-126.417,53.477c-20.932,25.956-34.377,80.076-42.063,120.144
	c-14.292,74.52-19.837,160.759-2.705,235.268c6.726,29.249,13.959,76.397,29.854,95.164c17.489,20.646,48.037,24.244,69.293,32.437
	c26.835,10.342,59.57,16.743,82.979-9.91c20.866-23.76,11.114-46.277-9.654-64.897c-19.942-17.883-42.072-21.058-63.049-33.584
	c-19.093-11.403-36.314-47.565-43.837-77.913c-16.946-68.363,4.32-195.836,56.046-203.479c38.816-5.735,67.999-14.208,78.999-81.916
	c2.077-12.777,10.005-43.495,4.435-56.345c-5.138-11.854-25.24-6.597-33.882-10.938"/>
<path fill="#5E55A4" d="M260.438,23.857c-0.229,124.626-14.134,244.028-14.134,367.524c0,24.959,2.979,135.254,29.915,121.791
	c13.938-6.966,19.784-44.742,20.335-63.045c0.868-28.881-3.617-80.066,9.362-101.176c22.243-36.186,26.383,29.959,29.593,54.34
	c3.118,23.683,1.742,48.59,3.418,72.821c2.038,29.464,11.52,40.443,30.14,41.922c28.568,2.268,27.666-33.499,30.68-69.374
	c4.13-49.164,11.46-92.069,11.46-143.758c0-57.77-2.95-112.482-12.918-168.216c-4.017-22.453-7.621-83.761-26.344-80.439
	c-15.074,2.672-18.396,33.752-20.503,52.471c-4.341,38.526-12.521,90.566-26.569,123.732
	c-13.312,31.419-24.917,19.112-29.568-13.473c-5.696-39.909-2.351-80.476-9.772-119.688c-2.95-15.587-4.974-30.237-11.308-42.363
	c-4.897-9.374-13.361-12.143-16.926-25.582"/>
<path fill="#B797C6" d="M582.74,397.073c-4.306-39.353-12.58-70.462-22.724-106.698c-11.48-41.03-24.635-82.86-33.813-124.944
	c-5.979-27.4-5.797-65.39-19.239-87.091c-8.23,21.153-20.325,10.818-29.797,25.387l-1.571,4.992
	c2.329,93.842-4.61,199.243-15.792,291.61c-4.596,37.98-10.782,83.554-7.178,122.491c13.208-4.089,22.784-22.352,27.369-42.035
	c3.359-14.425,1.321-32.764,3.423-47.584c2.095-14.776,7.201-27.053,9.063-43.711c3.532-31.6,7.417-58.633,28.391-70.486
	c20.089-11.354,11.337,14.127,14.41,41.743c3.139,28.233,20.019,171.9,50.323,116.92
	C597.736,455.663,585.295,420.451,582.74,397.073z M531.492,290.179c-7.491,3.441-28.702,3.091-36.809,2.963
	c-1.989-36.383,5.07-72.081,5.024-108.021c-0.026-0.012-0.05-0.029-0.076-0.041v-6.123c0.052,2.056,0.073,4.11,0.076,6.164
	c7.604,3.497,8.724,14.504,10.918,22.177c3.814,13.336,9.694,27.059,14.118,40.736C528.498,259.64,543.797,284.527,531.492,290.179z
	"/>
<path fill="#FFFFFF" d="M499.633,185.081c0.026,0.012,0.05,0.029,0.076,0.041c-0.003-2.054-0.024-4.108-0.076-6.164V185.081z"/>
</svg>
